<mxfile host="Electron" modified="2024-01-27T22:27:08.785Z" agent="Mozilla/5.0 (Macintosh; Intel Mac OS X 10_15_7) AppleWebKit/537.36 (KHTML, like Gecko) draw.io/22.1.21 Chrome/120.0.6099.109 Electron/28.1.0 Safari/537.36" etag="1QRCCLLWUKOLFwzeXLef" version="22.1.21" type="device">
  <diagram name="Page-1" id="26XVuioy-tL2MFwtIJL8">
    <mxGraphModel dx="1114" dy="623" grid="1" gridSize="10" guides="1" tooltips="1" connect="1" arrows="1" fold="1" page="1" pageScale="1" pageWidth="1000" pageHeight="700" math="0" shadow="0">
      <root>
        <mxCell id="0" />
        <mxCell id="1" value="FIFO2" parent="0" />
        <mxCell id="z-TTPnVHQl2KB7zgVeDQ-76" value="" style="group" vertex="1" connectable="0" parent="1">
          <mxGeometry x="50" y="200" width="455" height="100" as="geometry" />
        </mxCell>
        <mxCell id="z-TTPnVHQl2KB7zgVeDQ-30" value="A (6)" style="html=1;whiteSpace=wrap;fillColor=#dae8fc;strokeColor=#6c8ebf;" vertex="1" parent="z-TTPnVHQl2KB7zgVeDQ-76">
          <mxGeometry x="150" width="240" height="30" as="geometry" />
        </mxCell>
        <mxCell id="z-TTPnVHQl2KB7zgVeDQ-31" value="B (2)" style="html=1;whiteSpace=wrap;fillColor=#fff2cc;strokeColor=#d6b656;" vertex="1" parent="z-TTPnVHQl2KB7zgVeDQ-76">
          <mxGeometry x="70" width="80" height="30" as="geometry" />
        </mxCell>
        <mxCell id="z-TTPnVHQl2KB7zgVeDQ-32" value="C (1)" style="html=1;whiteSpace=wrap;fillColor=#d5e8d4;strokeColor=#82b366;" vertex="1" parent="z-TTPnVHQl2KB7zgVeDQ-76">
          <mxGeometry x="30" width="40" height="30" as="geometry" />
        </mxCell>
        <mxCell id="z-TTPnVHQl2KB7zgVeDQ-35" value="0" style="text;strokeColor=none;align=center;fillColor=none;html=1;verticalAlign=middle;whiteSpace=wrap;rounded=0;" vertex="1" parent="z-TTPnVHQl2KB7zgVeDQ-76">
          <mxGeometry y="48" width="60" height="30" as="geometry" />
        </mxCell>
        <mxCell id="z-TTPnVHQl2KB7zgVeDQ-36" value="1" style="text;strokeColor=none;align=center;fillColor=none;html=1;verticalAlign=middle;whiteSpace=wrap;rounded=0;fontStyle=1" vertex="1" parent="z-TTPnVHQl2KB7zgVeDQ-76">
          <mxGeometry x="40" y="48" width="60" height="30" as="geometry" />
        </mxCell>
        <mxCell id="z-TTPnVHQl2KB7zgVeDQ-37" value="2" style="text;strokeColor=none;align=center;fillColor=none;html=1;verticalAlign=middle;whiteSpace=wrap;rounded=0;fontStyle=1" vertex="1" parent="z-TTPnVHQl2KB7zgVeDQ-76">
          <mxGeometry x="80" y="48" width="60" height="30" as="geometry" />
        </mxCell>
        <mxCell id="z-TTPnVHQl2KB7zgVeDQ-39" value="3" style="text;strokeColor=none;align=center;fillColor=none;html=1;verticalAlign=middle;whiteSpace=wrap;rounded=0;fontStyle=1" vertex="1" parent="z-TTPnVHQl2KB7zgVeDQ-76">
          <mxGeometry x="120" y="48" width="60" height="30" as="geometry" />
        </mxCell>
        <mxCell id="z-TTPnVHQl2KB7zgVeDQ-40" value="4" style="text;strokeColor=none;align=center;fillColor=none;html=1;verticalAlign=middle;whiteSpace=wrap;rounded=0;fontStyle=1" vertex="1" parent="z-TTPnVHQl2KB7zgVeDQ-76">
          <mxGeometry x="160" y="48" width="60" height="30" as="geometry" />
        </mxCell>
        <mxCell id="z-TTPnVHQl2KB7zgVeDQ-41" value="5" style="text;strokeColor=none;align=center;fillColor=none;html=1;verticalAlign=middle;whiteSpace=wrap;rounded=0;fontStyle=1" vertex="1" parent="z-TTPnVHQl2KB7zgVeDQ-76">
          <mxGeometry x="200" y="48" width="60" height="30" as="geometry" />
        </mxCell>
        <mxCell id="z-TTPnVHQl2KB7zgVeDQ-42" value="6" style="text;strokeColor=none;align=center;fillColor=none;html=1;verticalAlign=middle;whiteSpace=wrap;rounded=0;fontStyle=1" vertex="1" parent="z-TTPnVHQl2KB7zgVeDQ-76">
          <mxGeometry x="240" y="48" width="60" height="30" as="geometry" />
        </mxCell>
        <mxCell id="z-TTPnVHQl2KB7zgVeDQ-43" value="7" style="text;strokeColor=none;align=center;fillColor=none;html=1;verticalAlign=middle;whiteSpace=wrap;rounded=0;fontStyle=1" vertex="1" parent="z-TTPnVHQl2KB7zgVeDQ-76">
          <mxGeometry x="280" y="48" width="60" height="30" as="geometry" />
        </mxCell>
        <mxCell id="z-TTPnVHQl2KB7zgVeDQ-44" value="8" style="text;strokeColor=none;align=center;fillColor=none;html=1;verticalAlign=middle;whiteSpace=wrap;rounded=0;fontStyle=1" vertex="1" parent="z-TTPnVHQl2KB7zgVeDQ-76">
          <mxGeometry x="320" y="48" width="60" height="30" as="geometry" />
        </mxCell>
        <mxCell id="z-TTPnVHQl2KB7zgVeDQ-45" value="9" style="text;strokeColor=none;align=center;fillColor=none;html=1;verticalAlign=middle;whiteSpace=wrap;rounded=0;fontStyle=1" vertex="1" parent="z-TTPnVHQl2KB7zgVeDQ-76">
          <mxGeometry x="360" y="48" width="60" height="30" as="geometry" />
        </mxCell>
        <mxCell id="z-TTPnVHQl2KB7zgVeDQ-46" value="10" style="text;strokeColor=none;align=center;fillColor=none;html=1;verticalAlign=middle;whiteSpace=wrap;rounded=0;fontStyle=1" vertex="1" parent="z-TTPnVHQl2KB7zgVeDQ-76">
          <mxGeometry x="395" y="48" width="60" height="30" as="geometry" />
        </mxCell>
        <mxCell id="z-TTPnVHQl2KB7zgVeDQ-55" value="" style="edgeStyle=none;orthogonalLoop=1;jettySize=auto;html=1;rounded=0;strokeWidth=3;entryX=0.75;entryY=0;entryDx=0;entryDy=0;" edge="1" parent="z-TTPnVHQl2KB7zgVeDQ-76">
          <mxGeometry width="80" relative="1" as="geometry">
            <mxPoint x="30" y="47" as="sourcePoint" />
            <mxPoint x="445" y="48" as="targetPoint" />
            <Array as="points" />
          </mxGeometry>
        </mxCell>
        <mxCell id="z-TTPnVHQl2KB7zgVeDQ-57" value="Time" style="text;strokeColor=none;align=center;fillColor=none;html=1;verticalAlign=middle;whiteSpace=wrap;rounded=0;fontStyle=1" vertex="1" parent="z-TTPnVHQl2KB7zgVeDQ-76">
          <mxGeometry x="160" y="70" width="60" height="30" as="geometry" />
        </mxCell>
        <mxCell id="z-TTPnVHQl2KB7zgVeDQ-77" value="FIFO1" parent="0" />
        <mxCell id="z-TTPnVHQl2KB7zgVeDQ-75" value="" style="group" vertex="1" connectable="0" parent="z-TTPnVHQl2KB7zgVeDQ-77">
          <mxGeometry x="80" y="77" width="430" height="100" as="geometry" />
        </mxCell>
        <mxCell id="z-TTPnVHQl2KB7zgVeDQ-58" value="A (6)" style="html=1;whiteSpace=wrap;fillColor=#dae8fc;strokeColor=#6c8ebf;" vertex="1" parent="z-TTPnVHQl2KB7zgVeDQ-75">
          <mxGeometry width="240" height="30" as="geometry" />
        </mxCell>
        <mxCell id="z-TTPnVHQl2KB7zgVeDQ-59" value="B (2)" style="html=1;whiteSpace=wrap;fillColor=#fff2cc;strokeColor=#d6b656;" vertex="1" parent="z-TTPnVHQl2KB7zgVeDQ-75">
          <mxGeometry x="240" width="80" height="30" as="geometry" />
        </mxCell>
        <mxCell id="z-TTPnVHQl2KB7zgVeDQ-60" value="C (1)" style="html=1;whiteSpace=wrap;fillColor=#d5e8d4;strokeColor=#82b366;" vertex="1" parent="z-TTPnVHQl2KB7zgVeDQ-75">
          <mxGeometry x="320" width="40" height="30" as="geometry" />
        </mxCell>
        <mxCell id="z-TTPnVHQl2KB7zgVeDQ-62" value="1" style="text;strokeColor=none;align=center;fillColor=none;html=1;verticalAlign=middle;whiteSpace=wrap;rounded=0;fontStyle=1" vertex="1" parent="z-TTPnVHQl2KB7zgVeDQ-75">
          <mxGeometry x="10" y="50" width="60" height="30" as="geometry" />
        </mxCell>
        <mxCell id="z-TTPnVHQl2KB7zgVeDQ-63" value="2" style="text;strokeColor=none;align=center;fillColor=none;html=1;verticalAlign=middle;whiteSpace=wrap;rounded=0;fontStyle=1" vertex="1" parent="z-TTPnVHQl2KB7zgVeDQ-75">
          <mxGeometry x="50" y="50" width="60" height="30" as="geometry" />
        </mxCell>
        <mxCell id="z-TTPnVHQl2KB7zgVeDQ-64" value="3" style="text;strokeColor=none;align=center;fillColor=none;html=1;verticalAlign=middle;whiteSpace=wrap;rounded=0;fontStyle=1" vertex="1" parent="z-TTPnVHQl2KB7zgVeDQ-75">
          <mxGeometry x="90" y="50" width="60" height="30" as="geometry" />
        </mxCell>
        <mxCell id="z-TTPnVHQl2KB7zgVeDQ-65" value="4" style="text;strokeColor=none;align=center;fillColor=none;html=1;verticalAlign=middle;whiteSpace=wrap;rounded=0;fontStyle=1" vertex="1" parent="z-TTPnVHQl2KB7zgVeDQ-75">
          <mxGeometry x="130" y="50" width="60" height="30" as="geometry" />
        </mxCell>
        <mxCell id="z-TTPnVHQl2KB7zgVeDQ-66" value="5" style="text;strokeColor=none;align=center;fillColor=none;html=1;verticalAlign=middle;whiteSpace=wrap;rounded=0;fontStyle=1" vertex="1" parent="z-TTPnVHQl2KB7zgVeDQ-75">
          <mxGeometry x="170" y="50" width="60" height="30" as="geometry" />
        </mxCell>
        <mxCell id="z-TTPnVHQl2KB7zgVeDQ-67" value="6" style="text;strokeColor=none;align=center;fillColor=none;html=1;verticalAlign=middle;whiteSpace=wrap;rounded=0;fontStyle=1" vertex="1" parent="z-TTPnVHQl2KB7zgVeDQ-75">
          <mxGeometry x="210" y="50" width="60" height="30" as="geometry" />
        </mxCell>
        <mxCell id="z-TTPnVHQl2KB7zgVeDQ-68" value="7" style="text;strokeColor=none;align=center;fillColor=none;html=1;verticalAlign=middle;whiteSpace=wrap;rounded=0;fontStyle=1" vertex="1" parent="z-TTPnVHQl2KB7zgVeDQ-75">
          <mxGeometry x="250" y="50" width="60" height="30" as="geometry" />
        </mxCell>
        <mxCell id="z-TTPnVHQl2KB7zgVeDQ-69" value="8" style="text;strokeColor=none;align=center;fillColor=none;html=1;verticalAlign=middle;whiteSpace=wrap;rounded=0;fontStyle=1" vertex="1" parent="z-TTPnVHQl2KB7zgVeDQ-75">
          <mxGeometry x="290" y="50" width="60" height="30" as="geometry" />
        </mxCell>
        <mxCell id="z-TTPnVHQl2KB7zgVeDQ-70" value="9" style="text;strokeColor=none;align=center;fillColor=none;html=1;verticalAlign=middle;whiteSpace=wrap;rounded=0;fontStyle=1" vertex="1" parent="z-TTPnVHQl2KB7zgVeDQ-75">
          <mxGeometry x="330" y="50" width="60" height="30" as="geometry" />
        </mxCell>
        <mxCell id="z-TTPnVHQl2KB7zgVeDQ-71" value="10" style="text;strokeColor=none;align=center;fillColor=none;html=1;verticalAlign=middle;whiteSpace=wrap;rounded=0;fontStyle=1" vertex="1" parent="z-TTPnVHQl2KB7zgVeDQ-75">
          <mxGeometry x="370" y="50" width="60" height="30" as="geometry" />
        </mxCell>
        <mxCell id="z-TTPnVHQl2KB7zgVeDQ-72" value="" style="edgeStyle=none;orthogonalLoop=1;jettySize=auto;html=1;rounded=0;strokeWidth=3;entryX=0.75;entryY=0;entryDx=0;entryDy=0;" edge="1" parent="z-TTPnVHQl2KB7zgVeDQ-75" target="z-TTPnVHQl2KB7zgVeDQ-71">
          <mxGeometry width="80" relative="1" as="geometry">
            <mxPoint y="49" as="sourcePoint" />
            <mxPoint x="80" y="49" as="targetPoint" />
            <Array as="points" />
          </mxGeometry>
        </mxCell>
        <mxCell id="z-TTPnVHQl2KB7zgVeDQ-73" value="Time" style="text;strokeColor=none;align=center;fillColor=none;html=1;verticalAlign=middle;whiteSpace=wrap;rounded=0;fontStyle=1" vertex="1" parent="z-TTPnVHQl2KB7zgVeDQ-75">
          <mxGeometry x="130" y="70" width="60" height="30" as="geometry" />
        </mxCell>
        <mxCell id="z-TTPnVHQl2KB7zgVeDQ-61" value="0" style="text;strokeColor=none;align=center;fillColor=none;html=1;verticalAlign=middle;whiteSpace=wrap;rounded=0;" vertex="1" parent="z-TTPnVHQl2KB7zgVeDQ-75">
          <mxGeometry x="-30" y="53" width="60" height="30" as="geometry" />
        </mxCell>
        <mxCell id="z-TTPnVHQl2KB7zgVeDQ-93" value="SJF-1" parent="0" />
        <mxCell id="z-TTPnVHQl2KB7zgVeDQ-78" value="A (2)" style="html=1;whiteSpace=wrap;fillColor=#dae8fc;strokeColor=#6c8ebf;" vertex="1" parent="z-TTPnVHQl2KB7zgVeDQ-93">
          <mxGeometry x="320" y="470" width="80" height="30" as="geometry" />
        </mxCell>
        <mxCell id="z-TTPnVHQl2KB7zgVeDQ-79" value="B (4)" style="html=1;whiteSpace=wrap;fillColor=#fff2cc;strokeColor=#d6b656;" vertex="1" parent="z-TTPnVHQl2KB7zgVeDQ-93">
          <mxGeometry x="400" y="470" width="160" height="30" as="geometry" />
        </mxCell>
        <mxCell id="z-TTPnVHQl2KB7zgVeDQ-80" value="C (1)" style="html=1;whiteSpace=wrap;fillColor=#d5e8d4;strokeColor=#82b366;" vertex="1" parent="z-TTPnVHQl2KB7zgVeDQ-93">
          <mxGeometry x="560" y="470" width="40" height="30" as="geometry" />
        </mxCell>
        <mxCell id="z-TTPnVHQl2KB7zgVeDQ-81" value="1" style="text;strokeColor=none;align=center;fillColor=none;html=1;verticalAlign=middle;whiteSpace=wrap;rounded=0;fontStyle=1" vertex="1" parent="z-TTPnVHQl2KB7zgVeDQ-93">
          <mxGeometry x="330" y="508" width="60" height="30" as="geometry" />
        </mxCell>
        <mxCell id="z-TTPnVHQl2KB7zgVeDQ-82" value="2" style="text;strokeColor=none;align=center;fillColor=none;html=1;verticalAlign=middle;whiteSpace=wrap;rounded=0;fontStyle=1" vertex="1" parent="z-TTPnVHQl2KB7zgVeDQ-93">
          <mxGeometry x="370" y="508" width="60" height="30" as="geometry" />
        </mxCell>
        <mxCell id="z-TTPnVHQl2KB7zgVeDQ-83" value="3" style="text;strokeColor=none;align=center;fillColor=none;html=1;verticalAlign=middle;whiteSpace=wrap;rounded=0;fontStyle=1" vertex="1" parent="z-TTPnVHQl2KB7zgVeDQ-93">
          <mxGeometry x="410" y="508" width="60" height="30" as="geometry" />
        </mxCell>
        <mxCell id="z-TTPnVHQl2KB7zgVeDQ-84" value="4" style="text;strokeColor=none;align=center;fillColor=none;html=1;verticalAlign=middle;whiteSpace=wrap;rounded=0;fontStyle=1" vertex="1" parent="z-TTPnVHQl2KB7zgVeDQ-93">
          <mxGeometry x="450" y="508" width="60" height="30" as="geometry" />
        </mxCell>
        <mxCell id="z-TTPnVHQl2KB7zgVeDQ-85" value="5" style="text;strokeColor=none;align=center;fillColor=none;html=1;verticalAlign=middle;whiteSpace=wrap;rounded=0;fontStyle=1" vertex="1" parent="z-TTPnVHQl2KB7zgVeDQ-93">
          <mxGeometry x="490" y="508" width="60" height="30" as="geometry" />
        </mxCell>
        <mxCell id="z-TTPnVHQl2KB7zgVeDQ-86" value="6" style="text;strokeColor=none;align=center;fillColor=none;html=1;verticalAlign=middle;whiteSpace=wrap;rounded=0;fontStyle=1" vertex="1" parent="z-TTPnVHQl2KB7zgVeDQ-93">
          <mxGeometry x="530" y="508" width="60" height="30" as="geometry" />
        </mxCell>
        <mxCell id="z-TTPnVHQl2KB7zgVeDQ-87" value="7" style="text;strokeColor=none;align=center;fillColor=none;html=1;verticalAlign=middle;whiteSpace=wrap;rounded=0;fontStyle=1" vertex="1" parent="z-TTPnVHQl2KB7zgVeDQ-93">
          <mxGeometry x="570" y="508" width="60" height="30" as="geometry" />
        </mxCell>
        <mxCell id="z-TTPnVHQl2KB7zgVeDQ-88" value="8" style="text;strokeColor=none;align=center;fillColor=none;html=1;verticalAlign=middle;whiteSpace=wrap;rounded=0;fontStyle=1" vertex="1" parent="z-TTPnVHQl2KB7zgVeDQ-93">
          <mxGeometry x="610" y="508" width="60" height="30" as="geometry" />
        </mxCell>
        <mxCell id="z-TTPnVHQl2KB7zgVeDQ-89" value="9" style="text;strokeColor=none;align=center;fillColor=none;html=1;verticalAlign=middle;whiteSpace=wrap;rounded=0;fontStyle=1" vertex="1" parent="z-TTPnVHQl2KB7zgVeDQ-93">
          <mxGeometry x="650" y="508" width="60" height="30" as="geometry" />
        </mxCell>
        <mxCell id="z-TTPnVHQl2KB7zgVeDQ-90" value="10" style="text;strokeColor=none;align=center;fillColor=none;html=1;verticalAlign=middle;whiteSpace=wrap;rounded=0;fontStyle=1" vertex="1" parent="z-TTPnVHQl2KB7zgVeDQ-93">
          <mxGeometry x="685" y="508" width="60" height="30" as="geometry" />
        </mxCell>
        <mxCell id="z-TTPnVHQl2KB7zgVeDQ-91" value="" style="edgeStyle=none;orthogonalLoop=1;jettySize=auto;html=1;rounded=0;strokeWidth=3;entryX=0.75;entryY=0;entryDx=0;entryDy=0;" edge="1" parent="z-TTPnVHQl2KB7zgVeDQ-93">
          <mxGeometry width="80" relative="1" as="geometry">
            <mxPoint x="320" y="507" as="sourcePoint" />
            <mxPoint x="735" y="508" as="targetPoint" />
            <Array as="points" />
          </mxGeometry>
        </mxCell>
        <mxCell id="z-TTPnVHQl2KB7zgVeDQ-92" value="Time" style="text;strokeColor=none;align=center;fillColor=none;html=1;verticalAlign=middle;whiteSpace=wrap;rounded=0;fontStyle=1" vertex="1" parent="z-TTPnVHQl2KB7zgVeDQ-93">
          <mxGeometry x="450" y="530" width="60" height="30" as="geometry" />
        </mxCell>
        <mxCell id="z-TTPnVHQl2KB7zgVeDQ-94" value="D (1)" style="html=1;whiteSpace=wrap;fillColor=#e1d5e7;strokeColor=#9673a6;" vertex="1" parent="z-TTPnVHQl2KB7zgVeDQ-93">
          <mxGeometry x="600" y="470" width="40" height="30" as="geometry" />
        </mxCell>
        <mxCell id="z-TTPnVHQl2KB7zgVeDQ-95" value="E (1)" style="html=1;whiteSpace=wrap;fillColor=#ffe6cc;strokeColor=#d79b00;" vertex="1" parent="z-TTPnVHQl2KB7zgVeDQ-93">
          <mxGeometry x="640" y="470" width="40" height="30" as="geometry" />
        </mxCell>
        <mxCell id="z-TTPnVHQl2KB7zgVeDQ-113" value="sJF-2" parent="0" />
        <mxCell id="z-TTPnVHQl2KB7zgVeDQ-96" value="A (2)" style="html=1;whiteSpace=wrap;fillColor=#dae8fc;strokeColor=#6c8ebf;" vertex="1" parent="z-TTPnVHQl2KB7zgVeDQ-113">
          <mxGeometry x="320" y="300" width="80" height="30" as="geometry" />
        </mxCell>
        <mxCell id="z-TTPnVHQl2KB7zgVeDQ-97" value="B (4)" style="html=1;whiteSpace=wrap;fillColor=#fff2cc;strokeColor=#d6b656;" vertex="1" parent="z-TTPnVHQl2KB7zgVeDQ-113">
          <mxGeometry x="400" y="300" width="40" height="30" as="geometry" />
        </mxCell>
        <mxCell id="z-TTPnVHQl2KB7zgVeDQ-98" value="C (1)" style="html=1;whiteSpace=wrap;fillColor=#d5e8d4;strokeColor=#82b366;" vertex="1" parent="z-TTPnVHQl2KB7zgVeDQ-113">
          <mxGeometry x="440" y="300" width="40" height="30" as="geometry" />
        </mxCell>
        <mxCell id="z-TTPnVHQl2KB7zgVeDQ-99" value="1" style="text;strokeColor=none;align=center;fillColor=none;html=1;verticalAlign=middle;whiteSpace=wrap;rounded=0;fontStyle=1" vertex="1" parent="z-TTPnVHQl2KB7zgVeDQ-113">
          <mxGeometry x="330" y="338" width="60" height="30" as="geometry" />
        </mxCell>
        <mxCell id="z-TTPnVHQl2KB7zgVeDQ-100" value="2" style="text;strokeColor=none;align=center;fillColor=none;html=1;verticalAlign=middle;whiteSpace=wrap;rounded=0;fontStyle=1" vertex="1" parent="z-TTPnVHQl2KB7zgVeDQ-113">
          <mxGeometry x="370" y="338" width="60" height="30" as="geometry" />
        </mxCell>
        <mxCell id="z-TTPnVHQl2KB7zgVeDQ-101" value="3" style="text;strokeColor=none;align=center;fillColor=none;html=1;verticalAlign=middle;whiteSpace=wrap;rounded=0;fontStyle=1" vertex="1" parent="z-TTPnVHQl2KB7zgVeDQ-113">
          <mxGeometry x="410" y="338" width="60" height="30" as="geometry" />
        </mxCell>
        <mxCell id="z-TTPnVHQl2KB7zgVeDQ-102" value="4" style="text;strokeColor=none;align=center;fillColor=none;html=1;verticalAlign=middle;whiteSpace=wrap;rounded=0;fontStyle=1" vertex="1" parent="z-TTPnVHQl2KB7zgVeDQ-113">
          <mxGeometry x="450" y="338" width="60" height="30" as="geometry" />
        </mxCell>
        <mxCell id="z-TTPnVHQl2KB7zgVeDQ-103" value="5" style="text;strokeColor=none;align=center;fillColor=none;html=1;verticalAlign=middle;whiteSpace=wrap;rounded=0;fontStyle=1" vertex="1" parent="z-TTPnVHQl2KB7zgVeDQ-113">
          <mxGeometry x="490" y="338" width="60" height="30" as="geometry" />
        </mxCell>
        <mxCell id="z-TTPnVHQl2KB7zgVeDQ-104" value="6" style="text;strokeColor=none;align=center;fillColor=none;html=1;verticalAlign=middle;whiteSpace=wrap;rounded=0;fontStyle=1" vertex="1" parent="z-TTPnVHQl2KB7zgVeDQ-113">
          <mxGeometry x="530" y="338" width="60" height="30" as="geometry" />
        </mxCell>
        <mxCell id="z-TTPnVHQl2KB7zgVeDQ-105" value="7" style="text;strokeColor=none;align=center;fillColor=none;html=1;verticalAlign=middle;whiteSpace=wrap;rounded=0;fontStyle=1" vertex="1" parent="z-TTPnVHQl2KB7zgVeDQ-113">
          <mxGeometry x="570" y="338" width="60" height="30" as="geometry" />
        </mxCell>
        <mxCell id="z-TTPnVHQl2KB7zgVeDQ-106" value="8" style="text;strokeColor=none;align=center;fillColor=none;html=1;verticalAlign=middle;whiteSpace=wrap;rounded=0;fontStyle=1" vertex="1" parent="z-TTPnVHQl2KB7zgVeDQ-113">
          <mxGeometry x="610" y="338" width="60" height="30" as="geometry" />
        </mxCell>
        <mxCell id="z-TTPnVHQl2KB7zgVeDQ-107" value="9" style="text;strokeColor=none;align=center;fillColor=none;html=1;verticalAlign=middle;whiteSpace=wrap;rounded=0;fontStyle=1" vertex="1" parent="z-TTPnVHQl2KB7zgVeDQ-113">
          <mxGeometry x="650" y="338" width="60" height="30" as="geometry" />
        </mxCell>
        <mxCell id="z-TTPnVHQl2KB7zgVeDQ-108" value="10" style="text;strokeColor=none;align=center;fillColor=none;html=1;verticalAlign=middle;whiteSpace=wrap;rounded=0;fontStyle=1" vertex="1" parent="z-TTPnVHQl2KB7zgVeDQ-113">
          <mxGeometry x="685" y="338" width="60" height="30" as="geometry" />
        </mxCell>
        <mxCell id="z-TTPnVHQl2KB7zgVeDQ-109" value="" style="edgeStyle=none;orthogonalLoop=1;jettySize=auto;html=1;rounded=0;strokeWidth=3;entryX=0.75;entryY=0;entryDx=0;entryDy=0;" edge="1" parent="z-TTPnVHQl2KB7zgVeDQ-113">
          <mxGeometry width="80" relative="1" as="geometry">
            <mxPoint x="320" y="337" as="sourcePoint" />
            <mxPoint x="735" y="338" as="targetPoint" />
            <Array as="points" />
          </mxGeometry>
        </mxCell>
        <mxCell id="z-TTPnVHQl2KB7zgVeDQ-110" value="Time" style="text;strokeColor=none;align=center;fillColor=none;html=1;verticalAlign=middle;whiteSpace=wrap;rounded=0;fontStyle=1" vertex="1" parent="z-TTPnVHQl2KB7zgVeDQ-113">
          <mxGeometry x="450" y="360" width="60" height="30" as="geometry" />
        </mxCell>
        <mxCell id="z-TTPnVHQl2KB7zgVeDQ-111" value="D (1)" style="html=1;whiteSpace=wrap;fillColor=#e1d5e7;strokeColor=#9673a6;" vertex="1" parent="z-TTPnVHQl2KB7zgVeDQ-113">
          <mxGeometry x="480" y="300" width="40" height="30" as="geometry" />
        </mxCell>
        <mxCell id="z-TTPnVHQl2KB7zgVeDQ-112" value="E (1)" style="html=1;whiteSpace=wrap;fillColor=#ffe6cc;strokeColor=#d79b00;" vertex="1" parent="z-TTPnVHQl2KB7zgVeDQ-113">
          <mxGeometry x="520" y="300" width="40" height="30" as="geometry" />
        </mxCell>
        <mxCell id="z-TTPnVHQl2KB7zgVeDQ-114" value="B (4)" style="html=1;whiteSpace=wrap;fillColor=#fff2cc;strokeColor=#d6b656;" vertex="1" parent="z-TTPnVHQl2KB7zgVeDQ-113">
          <mxGeometry x="560" y="300" width="120" height="30" as="geometry" />
        </mxCell>
      </root>
    </mxGraphModel>
  </diagram>
</mxfile>
